<?xml version="1.0" encoding="UTF-8" standalone="no" ?>
<!DOCTYPE svg PUBLIC "-//W3C//DTD SVG 1.1//EN" "http://www.w3.org/Graphics/SVG/1.1/DTD/svg11.dtd">
<svg xmlns="http://www.w3.org/2000/svg" xmlns:xlink="http://www.w3.org/1999/xlink" version="1.1" width="160.346" height="164.864" xml:space="preserve">
<desc>Created with Fabric.js 1.6.0-rc.1</desc>
<defs></defs>
<g style="stroke: none; stroke-width: 1; stroke-dasharray: none; stroke-linecap: butt; stroke-linejoin: miter; stroke-miterlimit: 10; fill: none; fill-rule: nonzero; opacity: 1;" transform="translate(10 10) rotate(0.91) scale(0.3 0.3)" >
  <path d="M 466.823 481.16 c -65.144 0 -128 14.231 -180.706 -83.652 c 0 20.073 10.037 63.563 30.118 83.652 H 120.47 L 128 435.155 L 82.823 481.16 H 15.058 c 45.176 -45.176 60.235 -140.74 60.235 -174.005 v -67.042 c 0 -16.632 13.485 -29.289 30.118 -29.289 h 240.941 c 16.632 0 30.118 13.485 30.118 30.118 c 0 23.612 -0.233 -12.393 -0.233 67.298 C 376.237 387.923 406.528 462.6 466.823 481.16 z" style="stroke: none; stroke-width: 1; stroke-dasharray: none; stroke-linecap: butt; stroke-linejoin: miter; stroke-miterlimit: 10; fill: #34d1b8; fill-rule: nonzero; opacity: 1;" transform=" matrix(1 0 0 1 0 0) " stroke-linecap="round" />
  <path d="M 75.294 240.113 v 67.042 c 0 33.265 -15.059 128.828 -60.235 174.005 h 67.765 L 128 435.155 l -7.529 46.005 h 105.412 V 210.824 H 105.411 C 88.779 210.824 75.294 223.48 75.294 240.113 z" style="stroke: none; stroke-width: 1; stroke-dasharray: none; stroke-linecap: butt; stroke-linejoin: miter; stroke-miterlimit: 10; fill: #a845a8; fill-rule: nonzero; opacity: 1;" transform=" matrix(1 0 0 1 0 0) " stroke-linecap="round" />
  <path d="M 352.783 210.824 H 273.28 c 15.578 -53.188 27.896 -102.008 27.896 -120.471 C 301.176 40.433 275.794 0 225.882 0 c -49.928 0 -75.294 40.433 -75.294 90.353 c 0 18.477 12.341 67.343 27.919 120.584 h -73.096 c -16.64 0 -30.118 12.649 -30.118 29.289 v 30.833 H 376.47 v -30.84 C 376.47 225.784 366.321 213.775 352.783 210.824 z M 225.882 45.176 c 12.469 0 22.588 10.112 22.588 22.588 s -10.12 22.588 -22.588 22.588 c -12.476 0 -22.588 -10.112 -22.588 -22.588 S 213.406 45.176 225.882 45.176 z" style="stroke: none; stroke-width: 1; stroke-dasharray: none; stroke-linecap: butt; stroke-linejoin: miter; stroke-miterlimit: 10; fill: #f538ff; fill-rule: nonzero; opacity: 1;" transform=" matrix(1 0 0 1 0 0) " stroke-linecap="round" />
  <rect x="75.29" y="271.06" rx="0" ry="0" width="301.18" height="37.65" style="stroke: none; stroke-width: 1; stroke-dasharray: none; stroke-linecap: butt; stroke-linejoin: miter; stroke-miterlimit: 10; fill: #FDD835; fill-rule: nonzero; opacity: 1;" transform=" matrix(1 0 0 1 0 0) "/>
  <path d="M 225.882 210.824 H 178.68 c 0.008 0.038 0.023 0.075 0.038 0.113 h -73.306 c -16.64 0 -30.118 12.649 -30.118 29.289 v 30.833 h 150.588 V 210.824 z" style="stroke: none; stroke-width: 1; stroke-dasharray: none; stroke-linecap: butt; stroke-linejoin: miter; stroke-miterlimit: 10; fill: #55bfe6; fill-rule: nonzero; opacity: 1;" transform=" matrix(1 0 0 1 0 0) " stroke-linecap="round" />
  <rect x="75.29" y="271.06" rx="0" ry="0" width="150.59" height="37.65" style="stroke: none; stroke-width: 1; stroke-dasharray: none; stroke-linecap: butt; stroke-linejoin: miter; stroke-miterlimit: 10; fill: #FFEE58; fill-rule: nonzero; opacity: 1;" transform=" matrix(1 0 0 1 0 0) "/>
</g>
</svg>